<?xml version="1.0" encoding="utf-8"?>
<svg viewBox="0 0 59.527 59.527" xmlns="http://www.w3.org/2000/svg">
  <path fill="#004696" d="M39.705,25.503H26.376c-8.271,0-15,5.894-15,14.164L11.375,56.69c0,1.566,1.27,2.837,2.838,2.837 c1.567,0,2.838-1.271,2.838-2.837l0.002-14.159h11.326c1.567,0,2.837-1.271,2.837-2.838c0-1.568-1.271-2.838-2.837-2.838H17.519 c1.222-3.514,4.728-5.677,8.857-5.677h13.328c1.567,0,2.838-1.271,2.838-2.838C42.543,26.773,41.272,25.503,39.705,25.503z"/>
  <path fill="#1EBEE6" d="M59.527,28.356c0,8.271-6.729,14.175-15,14.175h-7.625c-1.567,0-2.838-1.271-2.838-2.838 c0-1.568,1.271-2.838,2.838-2.838h7.625c5.142,0,9.324-3.357,9.324-8.499c0-6.232-5.799-8.487-8.395-8.487 c-1.912,0-2.865-1.613-2.865-2.869c0-6.084-5.075-11.325-11.369-11.325c-3.661,0-6.922,1.74-9.001,4.438l-0.007-0.005 c-0.511,0.749-1.37,1.241-2.345,1.241c-1.568,0-2.839-1.271-2.839-2.838c0-0.664,0.237-1.266,0.619-1.75l-0.004-0.003 C20.757,2.655,25.687,0,31.222,0c8.551,0,15.65,6.334,16.853,14.556C54.633,15.986,59.527,21.316,59.527,28.356z M11.377,39.667 c0-1.154,0.143-2.255,0.392-3.307c-3.551-1.097-6.092-4.01-6.092-8.014c0-5.141,4.182-8.488,9.323-8.488h13.421 c1.567,0,2.837-1.271,2.837-2.838s-1.27-2.838-2.837-2.838H15c-8.271,0-15,5.895-15,14.165c0,7.02,4.854,12.319,11.377,13.766 V39.667z"/>
  <path fill="#C8D200" d="M17.051,56.686c0,1.568-1.271,2.838-2.838,2.838c-1.568,0-2.838-1.271-2.838-2.838s1.271-2.838,2.838-2.838 C15.78,53.848,17.051,55.118,17.051,56.686z M28.383,36.854c-1.568,0-2.838,1.271-2.838,2.838c0,1.567,1.271,2.838,2.838,2.838 s2.838-1.271,2.838-2.838C31.222,38.125,29.951,36.854,28.383,36.854z M28.42,14.192c-1.567,0-2.838,1.271-2.838,2.839 c0,1.567,1.271,2.838,2.838,2.838c1.568,0,2.838-1.271,2.838-2.838C31.258,15.463,29.988,14.192,28.42,14.192z M39.704,25.503 c-1.568,0-2.838,1.27-2.838,2.838s1.271,2.839,2.838,2.839c1.567,0,2.839-1.271,2.839-2.839S41.271,25.503,39.704,25.503z"/>
</svg>